<svg version="1.1" xmlns="http://www.w3.org/2000/svg" width="512px" height="512px" viewBox="33 23 63 58" style="width: 256px; height: 256px; opacity: 1;">
<style type="text/css">
    .st0{fill:#4B4B4B;}
</style>
<g>
    <!-- 上の横棒 -->
    <rect class="st0" x="33" y="24" width="24" height="6" rx="3"/>
    <!-- 下の横棒 -->
    <rect class="st0" x="33" y="36" width="15" height="6" rx="3"/>
    <!-- 羽ペン外形 -->
    <path class="st0" d="
        M84.748566,24.736826 
        C88.465378,24.361519 91.748230,24.049788 95.580223,23.685911 
        C96.682617,33.228642 95.702904,41.583260 89.380241,48.781342 
        C88.018501,50.331623 86.781097,52.217762 86.170662,54.163818 
        C82.727493,65.140739 73.953491,71.802864 62.405697,71.930473 
        C61.740086,71.937828 61.074295,71.927513 60.408588,71.927460 
        C51.816929,71.926781 51.816929,71.926880 50.499306,80.675735 
        C48.990913,80.771805 47.397034,80.873329 45.859310,80.971268 
        C39.890747,59.087849 60.860344,28.666054 84.748566,24.736826 
        Z
    "/>
    <!-- 羽ペン内側のくぼみ -->
    <path class="st0" d="
        M66.139793,65.530624 
        C61.629139,65.640343 57.528332,65.640343 53.411175,65.640343 
        C54.524002,47.672623 71.740112,30.882481 89.102142,30.487787 
        C90.284958,42.971272 83.694725,48.699562 71.243240,48.217354 
        C69.591049,53.493877 69.843056,53.808601 77.923553,55.778343 
        C75.741531,61.159313 71.613327,63.794186 66.139793,65.530624 
        Z
    "/>
</g>
</svg>